<svg xmlns="http://www.w3.org/2000/svg" xmlns:xlink="http://www.w3.org/1999/xlink" width="500" zoomAndPan="magnify" viewBox="0 0 375 374.999991" height="500" preserveAspectRatio="xMidYMid meet" version="1.0"><defs><clipPath id="id1"><path d="M 18.910156 7.429688 L 356.410156 7.429688 L 356.410156 367.429688 L 18.910156 367.429688 Z M 18.910156 7.429688 " clip-rule="nonzero"/></clipPath></defs><path fill="#ffffff" d="M 146.925781 268.324219 L 146.925781 250.890625 C 146.925781 234.640625 156.472656 220.632812 170.269531 214.117188 C 173.746094 212.484375 176.019531 209.078125 176.019531 205.242188 C 176.019531 201.429688 173.746094 198.023438 170.269531 196.390625 C 156.472656 189.875 146.925781 175.871094 146.925781 159.617188 L 146.925781 134.671875 L 228.390625 134.671875 L 228.390625 159.617188 C 228.390625 175.871094 218.84375 189.875 205.046875 196.390625 C 201.570312 198.023438 199.296875 201.429688 199.296875 205.242188 C 199.296875 209.078125 201.570312 212.484375 205.046875 214.117188 C 218.84375 220.632812 228.390625 234.640625 228.390625 250.890625 L 228.390625 268.324219 L 146.925781 268.324219 " fill-opacity="1" fill-rule="nonzero"/><path fill="#eeeced" d="M 315.675781 198.59375 C 315.675781 269.1875 258.371094 326.433594 187.660156 326.433594 C 116.945312 326.433594 59.640625 269.1875 59.640625 198.59375 C 59.640625 127.976562 116.945312 70.75 187.660156 70.75 L 187.660156 88.183594 L 240.027344 53.316406 L 187.660156 18.449219 L 187.660156 35.882812 C 97.667969 35.882812 24.726562 108.726562 24.726562 198.59375 C 24.726562 288.4375 97.667969 361.300781 187.660156 361.300781 C 277.648438 361.300781 350.589844 288.4375 350.589844 198.59375 L 315.675781 198.59375 " fill-opacity="1" fill-rule="nonzero"/><path fill="#ffffff" d="M 146.925781 152.105469 L 228.390625 152.105469 L 228.390625 134.671875 L 146.925781 134.671875 L 146.925781 152.105469 " fill-opacity="1" fill-rule="nonzero"/><path fill="#d7983d" d="M 234.210938 140.480469 L 141.105469 140.480469 C 137.902344 140.480469 135.289062 137.871094 135.289062 134.671875 L 135.289062 123.050781 C 135.289062 119.824219 137.902344 117.238281 141.105469 117.238281 L 234.210938 117.238281 C 237.414062 117.238281 240.027344 119.824219 240.027344 123.050781 L 240.027344 134.671875 C 240.027344 137.871094 237.414062 140.480469 234.210938 140.480469 " fill-opacity="1" fill-rule="nonzero"/><path fill="#ffffff" d="M 146.925781 256.703125 L 146.925781 268.324219 L 228.390625 268.324219 L 228.390625 256.703125 L 146.925781 256.703125 " fill-opacity="1" fill-rule="nonzero"/><path fill="#d7983d" d="M 234.210938 291.570312 L 141.105469 291.570312 C 137.902344 291.570312 135.289062 288.957031 135.289062 285.757812 L 135.289062 274.136719 C 135.289062 270.914062 137.902344 268.324219 141.105469 268.324219 L 234.210938 268.324219 C 237.414062 268.324219 240.027344 270.914062 240.027344 274.136719 L 240.027344 285.757812 C 240.027344 288.957031 237.414062 291.570312 234.210938 291.570312 " fill-opacity="1" fill-rule="nonzero"/><g clip-path="url(#id1)"><path fill="#223322" d="M 344.769531 198.59375 C 344.769531 285.101562 274.285156 355.492188 187.660156 355.492188 C 101.035156 355.492188 30.546875 285.101562 30.546875 198.59375 C 30.546875 112.0625 101.035156 41.695312 187.660156 41.695312 L 193.476562 41.695312 L 193.476562 29.300781 L 229.550781 53.316406 L 193.476562 77.308594 L 193.476562 64.9375 L 187.660156 64.9375 C 113.851562 64.9375 53.824219 124.886719 53.824219 198.59375 C 53.824219 272.273438 113.851562 332.246094 187.660156 332.246094 C 261.464844 332.246094 321.496094 272.273438 321.496094 198.59375 L 309.855469 198.59375 C 309.855469 265.875 255.03125 320.625 187.660156 320.625 C 120.285156 320.625 65.460938 265.875 65.460938 198.59375 C 65.460938 133.242188 117.148438 79.738281 181.839844 76.695312 L 181.839844 99.03125 L 250.507812 53.316406 L 181.839844 7.578125 L 181.839844 30.164062 C 91.464844 33.226562 18.910156 107.613281 18.910156 198.59375 C 18.910156 291.5 94.625 367.113281 187.660156 367.113281 C 280.695312 367.113281 356.410156 291.5 356.410156 198.59375 L 344.769531 198.59375 " fill-opacity="1" fill-rule="nonzero"/></g><path fill="#223322" d="M 202.546875 219.363281 C 214.707031 225.105469 222.574219 237.476562 222.574219 250.890625 L 222.574219 262.515625 L 152.746094 262.515625 L 152.746094 250.890625 C 152.746094 237.476562 160.609375 225.105469 172.769531 219.363281 C 178.269531 216.773438 181.839844 211.214844 181.839844 205.242188 C 181.839844 199.273438 178.269531 193.734375 172.769531 191.125 C 160.609375 185.402344 152.746094 173.03125 152.746094 159.617188 L 152.746094 146.292969 L 222.574219 146.292969 L 222.574219 159.617188 C 222.574219 173.03125 214.707031 185.402344 202.546875 191.125 C 197.046875 193.734375 193.476562 199.273438 193.476562 205.242188 C 193.476562 211.214844 197.046875 216.773438 202.546875 219.363281 Z M 234.234375 285.757812 L 141.105469 285.757812 L 141.105469 274.136719 L 234.210938 274.136719 Z M 141.105469 123.050781 L 234.210938 123.050781 L 234.234375 134.671875 L 141.105469 134.671875 Z M 207.523438 201.632812 C 223.730469 193.984375 234.210938 177.480469 234.210938 159.617188 L 234.210938 146.292969 C 240.621094 146.292969 245.847656 141.074219 245.847656 134.671875 L 245.847656 123.050781 C 245.847656 116.625 240.621094 111.425781 234.210938 111.425781 L 141.105469 111.425781 C 134.695312 111.425781 129.46875 116.625 129.46875 123.050781 L 129.46875 134.671875 C 129.46875 141.074219 134.695312 146.292969 141.105469 146.292969 L 141.105469 159.617188 C 141.105469 177.480469 151.585938 193.984375 167.792969 201.632812 C 169.269531 202.339844 170.203125 203.722656 170.203125 205.242188 C 170.203125 206.765625 169.269531 208.148438 167.792969 208.851562 C 151.585938 216.503906 141.105469 233.003906 141.105469 250.890625 L 141.105469 262.515625 C 134.695312 262.515625 129.46875 267.710938 129.46875 274.136719 L 129.46875 285.757812 C 129.46875 292.160156 134.695312 297.378906 141.105469 297.378906 L 234.210938 297.378906 C 240.621094 297.378906 245.847656 292.160156 245.847656 285.757812 L 245.847656 274.136719 C 245.847656 267.710938 240.621094 262.515625 234.210938 262.515625 L 234.210938 250.890625 C 234.210938 233.003906 223.730469 216.503906 207.523438 208.851562 C 206.046875 208.148438 205.117188 206.765625 205.117188 205.242188 C 205.117188 203.722656 206.046875 202.339844 207.523438 201.632812 " fill-opacity="1" fill-rule="nonzero"/><path fill="#223322" d="M 307.199219 172.601562 L 318.425781 169.605469 L 315.425781 158.371094 L 304.195312 161.386719 L 307.199219 172.601562 " fill-opacity="1" fill-rule="nonzero"/><path fill="#223322" d="M 306.46875 136.78125 L 300.652344 126.726562 L 290.582031 132.539062 L 296.402344 142.59375 L 306.46875 136.78125 " fill-opacity="1" fill-rule="nonzero"/><path fill="#223322" d="M 286.398438 108.179688 L 278.171875 99.964844 L 269.964844 108.179688 L 278.171875 116.398438 L 286.398438 108.179688 " fill-opacity="1" fill-rule="nonzero"/><path fill="#223322" d="M 259.621094 85.730469 L 249.53125 79.921875 L 243.710938 90 L 253.804688 95.808594 L 259.621094 85.730469 " fill-opacity="1" fill-rule="nonzero"/><path fill="#223322" d="M 342.882812 173.667969 L 354.292969 171.398438 L 352.023438 160.003906 L 340.609375 162.273438 L 342.882812 173.667969 " fill-opacity="1" fill-rule="nonzero"/><path fill="#223322" d="M 335.042969 143.910156 L 345.792969 139.460938 L 341.339844 128.722656 L 330.585938 133.171875 L 335.042969 143.910156 " fill-opacity="1" fill-rule="nonzero"/><path fill="#223322" d="M 331.199219 109.792969 L 324.722656 100.121094 L 315.0625 106.59375 L 321.515625 116.238281 L 331.199219 109.792969 " fill-opacity="1" fill-rule="nonzero"/><path fill="#223322" d="M 311.105469 83.53125 L 302.855469 75.3125 L 294.648438 83.53125 L 302.855469 91.746094 L 311.105469 83.53125 " fill-opacity="1" fill-rule="nonzero"/><path fill="#223322" d="M 286.238281 61.691406 L 276.578125 55.246094 L 270.101562 64.894531 L 279.785156 71.363281 L 286.238281 61.691406 " fill-opacity="1" fill-rule="nonzero"/></svg>